<mxfile host="app.diagrams.net" agent="Mozilla/5.0 (Windows NT 10.0; Win64; x64) AppleWebKit/537.36 (KHTML, like Gecko) Chrome/134.0.0.0 Safari/537.36" version="26.1.3">
  <diagram name="Page-1" id="F9lVqkT7TLSQkChpaIqB">
    <mxGraphModel dx="2393" dy="940" grid="1" gridSize="1" guides="1" tooltips="1" connect="1" arrows="1" fold="1" page="1" pageScale="1" pageWidth="850" pageHeight="1100" math="0" shadow="0">
      <root>
        <mxCell id="0" />
        <mxCell id="1" parent="0" />
        <mxCell id="Qy26fxQQe6GshsW-8NBu-29" value="" style="endArrow=none;dashed=1;html=1;rounded=0;fillColor=#FFFFFF;" edge="1" parent="1">
          <mxGeometry width="50" height="50" relative="1" as="geometry">
            <mxPoint x="640" y="960" as="sourcePoint" />
            <mxPoint x="680" y="960" as="targetPoint" />
          </mxGeometry>
        </mxCell>
        <mxCell id="Qy26fxQQe6GshsW-8NBu-123" value="" style="group" vertex="1" connectable="0" parent="1">
          <mxGeometry x="284" y="217" width="1184" height="545" as="geometry" />
        </mxCell>
        <mxCell id="Qy26fxQQe6GshsW-8NBu-2" value="" style="rounded=1;whiteSpace=wrap;html=1;fillColor=#000000;" vertex="1" parent="Qy26fxQQe6GshsW-8NBu-123">
          <mxGeometry width="1184" height="545" as="geometry" />
        </mxCell>
        <mxCell id="Qy26fxQQe6GshsW-8NBu-3" value="" style="rounded=0;whiteSpace=wrap;html=1;fillColor=#E6E6E6;" vertex="1" parent="Qy26fxQQe6GshsW-8NBu-123">
          <mxGeometry x="171" y="58" width="560" height="430" as="geometry" />
        </mxCell>
        <mxCell id="Qy26fxQQe6GshsW-8NBu-4" value="" style="ellipse;whiteSpace=wrap;html=1;aspect=fixed;" vertex="1" parent="Qy26fxQQe6GshsW-8NBu-123">
          <mxGeometry x="51" y="78" width="80" height="80" as="geometry" />
        </mxCell>
        <mxCell id="Qy26fxQQe6GshsW-8NBu-11" value="" style="ellipse;whiteSpace=wrap;html=1;aspect=fixed;" vertex="1" parent="Qy26fxQQe6GshsW-8NBu-123">
          <mxGeometry x="781" y="143" width="260" height="260" as="geometry" />
        </mxCell>
        <mxCell id="Qy26fxQQe6GshsW-8NBu-12" value="" style="ellipse;whiteSpace=wrap;html=1;aspect=fixed;" vertex="1" parent="Qy26fxQQe6GshsW-8NBu-123">
          <mxGeometry x="66" y="208" width="50" height="50" as="geometry" />
        </mxCell>
        <mxCell id="Qy26fxQQe6GshsW-8NBu-22" value="" style="group" vertex="1" connectable="0" parent="Qy26fxQQe6GshsW-8NBu-123">
          <mxGeometry x="781" y="448" width="250" height="40" as="geometry" />
        </mxCell>
        <mxCell id="Qy26fxQQe6GshsW-8NBu-8" value="" style="rounded=0;whiteSpace=wrap;html=1;" vertex="1" parent="Qy26fxQQe6GshsW-8NBu-22">
          <mxGeometry x="40" width="210" height="40" as="geometry" />
        </mxCell>
        <mxCell id="Qy26fxQQe6GshsW-8NBu-9" value="" style="rounded=0;whiteSpace=wrap;html=1;fillColor=#A680B8;" vertex="1" parent="Qy26fxQQe6GshsW-8NBu-22">
          <mxGeometry x="50" y="10" width="65" height="20" as="geometry" />
        </mxCell>
        <mxCell id="Qy26fxQQe6GshsW-8NBu-10" value="" style="ellipse;whiteSpace=wrap;html=1;aspect=fixed;fillColor=#66FFB3;" vertex="1" parent="Qy26fxQQe6GshsW-8NBu-22">
          <mxGeometry y="5" width="30" height="30" as="geometry" />
        </mxCell>
        <mxCell id="Qy26fxQQe6GshsW-8NBu-23" value="" style="group" vertex="1" connectable="0" parent="Qy26fxQQe6GshsW-8NBu-123">
          <mxGeometry x="991" y="48" width="125" height="70" as="geometry" />
        </mxCell>
        <mxCell id="Qy26fxQQe6GshsW-8NBu-13" value="" style="ellipse;whiteSpace=wrap;html=1;aspect=fixed;" vertex="1" parent="Qy26fxQQe6GshsW-8NBu-23">
          <mxGeometry x="55" width="70" height="70" as="geometry" />
        </mxCell>
        <mxCell id="Qy26fxQQe6GshsW-8NBu-14" value="" style="ellipse;whiteSpace=wrap;html=1;aspect=fixed;fillColor=#99CCFF;" vertex="1" parent="Qy26fxQQe6GshsW-8NBu-23">
          <mxGeometry width="30" height="30" as="geometry" />
        </mxCell>
        <mxCell id="Qy26fxQQe6GshsW-8NBu-15" value="" style="ellipse;whiteSpace=wrap;html=1;aspect=fixed;fillColor=#FF99FF;" vertex="1" parent="Qy26fxQQe6GshsW-8NBu-23">
          <mxGeometry y="40" width="30" height="30" as="geometry" />
        </mxCell>
        <mxCell id="Qy26fxQQe6GshsW-8NBu-100" style="edgeStyle=orthogonalEdgeStyle;rounded=0;orthogonalLoop=1;jettySize=auto;html=1;exitX=0.5;exitY=1;exitDx=0;exitDy=0;" edge="1" parent="Qy26fxQQe6GshsW-8NBu-23" source="Qy26fxQQe6GshsW-8NBu-15" target="Qy26fxQQe6GshsW-8NBu-15">
          <mxGeometry relative="1" as="geometry" />
        </mxCell>
        <mxCell id="Qy26fxQQe6GshsW-8NBu-24" value="" style="group" vertex="1" connectable="0" parent="Qy26fxQQe6GshsW-8NBu-123">
          <mxGeometry x="76" y="343" width="30" height="130" as="geometry" />
        </mxCell>
        <mxCell id="Qy26fxQQe6GshsW-8NBu-5" value="" style="ellipse;whiteSpace=wrap;html=1;aspect=fixed;fillColor=#66FFB3;" vertex="1" parent="Qy26fxQQe6GshsW-8NBu-24">
          <mxGeometry width="30" height="30" as="geometry" />
        </mxCell>
        <mxCell id="Qy26fxQQe6GshsW-8NBu-6" value="" style="ellipse;whiteSpace=wrap;html=1;aspect=fixed;fillColor=#FFFF99;" vertex="1" parent="Qy26fxQQe6GshsW-8NBu-24">
          <mxGeometry y="50" width="30" height="30" as="geometry" />
        </mxCell>
        <mxCell id="Qy26fxQQe6GshsW-8NBu-7" value="" style="ellipse;whiteSpace=wrap;html=1;aspect=fixed;fillColor=#FF3333;" vertex="1" parent="Qy26fxQQe6GshsW-8NBu-24">
          <mxGeometry y="100" width="30" height="30" as="geometry" />
        </mxCell>
        <mxCell id="Qy26fxQQe6GshsW-8NBu-38" value="" style="orthogonalLoop=1;jettySize=auto;html=1;rounded=0;fillColor=#FFFFFF;strokeColor=#FFFFFF;endArrow=none;endFill=0;startFill=0;" edge="1" parent="Qy26fxQQe6GshsW-8NBu-123">
          <mxGeometry width="80" relative="1" as="geometry">
            <mxPoint x="1079" y="202" as="sourcePoint" />
            <mxPoint x="1091" y="202" as="targetPoint" />
          </mxGeometry>
        </mxCell>
        <mxCell id="Qy26fxQQe6GshsW-8NBu-42" value="" style="orthogonalLoop=1;jettySize=auto;html=1;rounded=0;fillColor=#FFFFFF;strokeColor=#FFFFFF;endArrow=none;endFill=0;startFill=0;" edge="1" parent="Qy26fxQQe6GshsW-8NBu-123">
          <mxGeometry width="80" relative="1" as="geometry">
            <mxPoint x="1121" y="202" as="sourcePoint" />
            <mxPoint x="1133" y="202" as="targetPoint" />
          </mxGeometry>
        </mxCell>
        <mxCell id="Qy26fxQQe6GshsW-8NBu-63" value="" style="group" vertex="1" connectable="0" parent="Qy26fxQQe6GshsW-8NBu-123">
          <mxGeometry x="1079" y="202" width="53" height="144" as="geometry" />
        </mxCell>
        <mxCell id="Qy26fxQQe6GshsW-8NBu-21" value="" style="group" vertex="1" connectable="0" parent="Qy26fxQQe6GshsW-8NBu-63">
          <mxGeometry x="12" y="16" width="30" height="110" as="geometry" />
        </mxCell>
        <mxCell id="Qy26fxQQe6GshsW-8NBu-19" value="" style="rounded=0;whiteSpace=wrap;html=1;" vertex="1" parent="Qy26fxQQe6GshsW-8NBu-21">
          <mxGeometry width="30" height="110" as="geometry" />
        </mxCell>
        <mxCell id="Qy26fxQQe6GshsW-8NBu-20" value="" style="rounded=0;whiteSpace=wrap;html=1;fillColor=#FFD966;" vertex="1" parent="Qy26fxQQe6GshsW-8NBu-21">
          <mxGeometry x="7.5" y="50" width="15" height="50" as="geometry" />
        </mxCell>
        <mxCell id="Qy26fxQQe6GshsW-8NBu-52" value="" style="orthogonalLoop=1;jettySize=auto;html=1;rounded=0;fillColor=#FFFFFF;strokeColor=#FFFFFF;endArrow=none;endFill=0;startFill=0;" edge="1" parent="Qy26fxQQe6GshsW-8NBu-63">
          <mxGeometry width="80" relative="1" as="geometry">
            <mxPoint y="144" as="sourcePoint" />
            <mxPoint x="5" y="144" as="targetPoint" />
          </mxGeometry>
        </mxCell>
        <mxCell id="Qy26fxQQe6GshsW-8NBu-53" value="" style="orthogonalLoop=1;jettySize=auto;html=1;rounded=0;fillColor=#FFFFFF;strokeColor=#FFFFFF;endArrow=none;endFill=0;startFill=0;" edge="1" parent="Qy26fxQQe6GshsW-8NBu-63">
          <mxGeometry width="80" relative="1" as="geometry">
            <mxPoint x="12" y="144" as="sourcePoint" />
            <mxPoint x="17" y="144" as="targetPoint" />
          </mxGeometry>
        </mxCell>
        <mxCell id="Qy26fxQQe6GshsW-8NBu-56" value="" style="orthogonalLoop=1;jettySize=auto;html=1;rounded=0;fillColor=#FFFFFF;strokeColor=#FFFFFF;endArrow=none;endFill=0;startFill=0;" edge="1" parent="Qy26fxQQe6GshsW-8NBu-63">
          <mxGeometry width="80" relative="1" as="geometry">
            <mxPoint x="6" y="144" as="sourcePoint" />
            <mxPoint x="11" y="144" as="targetPoint" />
          </mxGeometry>
        </mxCell>
        <mxCell id="Qy26fxQQe6GshsW-8NBu-57" value="" style="orthogonalLoop=1;jettySize=auto;html=1;rounded=0;fillColor=#FFFFFF;strokeColor=#FFFFFF;endArrow=none;endFill=0;startFill=0;" edge="1" parent="Qy26fxQQe6GshsW-8NBu-63">
          <mxGeometry width="80" relative="1" as="geometry">
            <mxPoint x="18" y="144" as="sourcePoint" />
            <mxPoint x="23" y="144" as="targetPoint" />
          </mxGeometry>
        </mxCell>
        <mxCell id="Qy26fxQQe6GshsW-8NBu-58" value="" style="orthogonalLoop=1;jettySize=auto;html=1;rounded=0;fillColor=#FFFFFF;strokeColor=#FFFFFF;endArrow=none;endFill=0;startFill=0;" edge="1" parent="Qy26fxQQe6GshsW-8NBu-63">
          <mxGeometry width="80" relative="1" as="geometry">
            <mxPoint x="24" y="144" as="sourcePoint" />
            <mxPoint x="29" y="144" as="targetPoint" />
          </mxGeometry>
        </mxCell>
        <mxCell id="Qy26fxQQe6GshsW-8NBu-59" value="" style="orthogonalLoop=1;jettySize=auto;html=1;rounded=0;fillColor=#FFFFFF;strokeColor=#FFFFFF;endArrow=none;endFill=0;startFill=0;" edge="1" parent="Qy26fxQQe6GshsW-8NBu-63">
          <mxGeometry width="80" relative="1" as="geometry">
            <mxPoint x="30" y="144" as="sourcePoint" />
            <mxPoint x="35" y="144" as="targetPoint" />
          </mxGeometry>
        </mxCell>
        <mxCell id="Qy26fxQQe6GshsW-8NBu-60" value="" style="orthogonalLoop=1;jettySize=auto;html=1;rounded=0;fillColor=#FFFFFF;strokeColor=#FFFFFF;endArrow=none;endFill=0;startFill=0;" edge="1" parent="Qy26fxQQe6GshsW-8NBu-63">
          <mxGeometry width="80" relative="1" as="geometry">
            <mxPoint x="36" y="144" as="sourcePoint" />
            <mxPoint x="41" y="144" as="targetPoint" />
          </mxGeometry>
        </mxCell>
        <mxCell id="Qy26fxQQe6GshsW-8NBu-61" value="" style="orthogonalLoop=1;jettySize=auto;html=1;rounded=0;fillColor=#FFFFFF;strokeColor=#FFFFFF;endArrow=none;endFill=0;startFill=0;" edge="1" parent="Qy26fxQQe6GshsW-8NBu-63">
          <mxGeometry width="80" relative="1" as="geometry">
            <mxPoint x="42" y="144" as="sourcePoint" />
            <mxPoint x="47" y="144" as="targetPoint" />
          </mxGeometry>
        </mxCell>
        <mxCell id="Qy26fxQQe6GshsW-8NBu-62" value="" style="orthogonalLoop=1;jettySize=auto;html=1;rounded=0;fillColor=#FFFFFF;strokeColor=#FFFFFF;endArrow=none;endFill=0;startFill=0;" edge="1" parent="Qy26fxQQe6GshsW-8NBu-63">
          <mxGeometry width="80" relative="1" as="geometry">
            <mxPoint x="48" y="144" as="sourcePoint" />
            <mxPoint x="53" y="144" as="targetPoint" />
          </mxGeometry>
        </mxCell>
        <mxCell id="Qy26fxQQe6GshsW-8NBu-41" value="" style="orthogonalLoop=1;jettySize=auto;html=1;rounded=0;fillColor=#FFFFFF;strokeColor=#FFFFFF;endArrow=none;endFill=0;startFill=0;" edge="1" parent="Qy26fxQQe6GshsW-8NBu-63">
          <mxGeometry width="80" relative="1" as="geometry">
            <mxPoint x="12" as="sourcePoint" />
            <mxPoint x="26" as="targetPoint" />
          </mxGeometry>
        </mxCell>
        <mxCell id="Qy26fxQQe6GshsW-8NBu-43" value="" style="orthogonalLoop=1;jettySize=auto;html=1;rounded=0;fillColor=#FFFFFF;strokeColor=#FFFFFF;endArrow=none;endFill=0;startFill=0;" edge="1" parent="Qy26fxQQe6GshsW-8NBu-63">
          <mxGeometry width="80" relative="1" as="geometry">
            <mxPoint x="28" as="sourcePoint" />
            <mxPoint x="42" as="targetPoint" />
          </mxGeometry>
        </mxCell>
        <mxCell id="Qy26fxQQe6GshsW-8NBu-64" value="&lt;font style=&quot;font-size: 20px; color: rgb(255, 255, 255);&quot; face=&quot;Verdana&quot;&gt;H&lt;/font&gt;" style="text;html=1;align=center;verticalAlign=middle;whiteSpace=wrap;rounded=0;" vertex="1" parent="Qy26fxQQe6GshsW-8NBu-123">
          <mxGeometry x="894" y="489" width="60" height="30" as="geometry" />
        </mxCell>
        <mxCell id="Qy26fxQQe6GshsW-8NBu-82" value="" style="group" vertex="1" connectable="0" parent="Qy26fxQQe6GshsW-8NBu-123">
          <mxGeometry x="900" y="53" width="70" height="14" as="geometry" />
        </mxCell>
        <mxCell id="Qy26fxQQe6GshsW-8NBu-65" value="" style="edgeStyle=none;orthogonalLoop=1;jettySize=auto;html=1;rounded=0;endArrow=none;startFill=0;strokeColor=#FFFFFF;" edge="1" parent="Qy26fxQQe6GshsW-8NBu-82">
          <mxGeometry width="80" relative="1" as="geometry">
            <mxPoint y="14" as="sourcePoint" />
            <mxPoint x="9.999999999999998" y="14" as="targetPoint" />
            <Array as="points" />
          </mxGeometry>
        </mxCell>
        <mxCell id="Qy26fxQQe6GshsW-8NBu-66" value="" style="edgeStyle=none;orthogonalLoop=1;jettySize=auto;html=1;rounded=0;endArrow=none;startFill=0;strokeColor=#FFFFFF;" edge="1" parent="Qy26fxQQe6GshsW-8NBu-82">
          <mxGeometry width="80" relative="1" as="geometry">
            <mxPoint x="9.999999999999998" y="14" as="sourcePoint" />
            <mxPoint x="9.999999999999998" as="targetPoint" />
            <Array as="points" />
          </mxGeometry>
        </mxCell>
        <mxCell id="Qy26fxQQe6GshsW-8NBu-67" value="" style="edgeStyle=none;orthogonalLoop=1;jettySize=auto;html=1;rounded=0;endArrow=none;startFill=0;strokeColor=#FFFFFF;" edge="1" parent="Qy26fxQQe6GshsW-8NBu-82">
          <mxGeometry width="80" relative="1" as="geometry">
            <mxPoint x="9.999999999999998" as="sourcePoint" />
            <mxPoint x="19.999999999999996" as="targetPoint" />
            <Array as="points" />
          </mxGeometry>
        </mxCell>
        <mxCell id="Qy26fxQQe6GshsW-8NBu-69" value="" style="edgeStyle=none;orthogonalLoop=1;jettySize=auto;html=1;rounded=0;endArrow=none;startFill=0;strokeColor=#FFFFFF;" edge="1" parent="Qy26fxQQe6GshsW-8NBu-82">
          <mxGeometry width="80" relative="1" as="geometry">
            <mxPoint x="19.999999999999996" y="14" as="sourcePoint" />
            <mxPoint x="19.999999999999996" as="targetPoint" />
            <Array as="points" />
          </mxGeometry>
        </mxCell>
        <mxCell id="Qy26fxQQe6GshsW-8NBu-70" value="" style="edgeStyle=none;orthogonalLoop=1;jettySize=auto;html=1;rounded=0;endArrow=none;startFill=0;strokeColor=#FFFFFF;" edge="1" parent="Qy26fxQQe6GshsW-8NBu-82">
          <mxGeometry width="80" relative="1" as="geometry">
            <mxPoint x="19.999999999999996" y="14" as="sourcePoint" />
            <mxPoint x="29.999999999999996" y="14" as="targetPoint" />
            <Array as="points" />
          </mxGeometry>
        </mxCell>
        <mxCell id="Qy26fxQQe6GshsW-8NBu-72" value="" style="edgeStyle=none;orthogonalLoop=1;jettySize=auto;html=1;rounded=0;endArrow=none;startFill=0;strokeColor=#FFFFFF;" edge="1" parent="Qy26fxQQe6GshsW-8NBu-82">
          <mxGeometry width="80" relative="1" as="geometry">
            <mxPoint x="29.999999999999996" y="14" as="sourcePoint" />
            <mxPoint x="29.999999999999996" as="targetPoint" />
            <Array as="points" />
          </mxGeometry>
        </mxCell>
        <mxCell id="Qy26fxQQe6GshsW-8NBu-73" value="" style="edgeStyle=none;orthogonalLoop=1;jettySize=auto;html=1;rounded=0;endArrow=none;startFill=0;strokeColor=#FFFFFF;" edge="1" parent="Qy26fxQQe6GshsW-8NBu-82">
          <mxGeometry width="80" relative="1" as="geometry">
            <mxPoint x="29.999999999999996" as="sourcePoint" />
            <mxPoint x="39.99999999999999" as="targetPoint" />
            <Array as="points" />
          </mxGeometry>
        </mxCell>
        <mxCell id="Qy26fxQQe6GshsW-8NBu-74" value="" style="edgeStyle=none;orthogonalLoop=1;jettySize=auto;html=1;rounded=0;endArrow=none;startFill=0;strokeColor=#FFFFFF;" edge="1" parent="Qy26fxQQe6GshsW-8NBu-82">
          <mxGeometry width="80" relative="1" as="geometry">
            <mxPoint x="39.99999999999999" y="14" as="sourcePoint" />
            <mxPoint x="50" y="14" as="targetPoint" />
            <Array as="points" />
          </mxGeometry>
        </mxCell>
        <mxCell id="Qy26fxQQe6GshsW-8NBu-75" value="" style="edgeStyle=none;orthogonalLoop=1;jettySize=auto;html=1;rounded=0;endArrow=none;startFill=0;strokeColor=#FFFFFF;" edge="1" parent="Qy26fxQQe6GshsW-8NBu-82">
          <mxGeometry width="80" relative="1" as="geometry">
            <mxPoint x="50" y="14" as="sourcePoint" />
            <mxPoint x="50" as="targetPoint" />
            <Array as="points" />
          </mxGeometry>
        </mxCell>
        <mxCell id="Qy26fxQQe6GshsW-8NBu-76" value="" style="edgeStyle=none;orthogonalLoop=1;jettySize=auto;html=1;rounded=0;endArrow=none;startFill=0;strokeColor=#FFFFFF;" edge="1" parent="Qy26fxQQe6GshsW-8NBu-82">
          <mxGeometry width="80" relative="1" as="geometry">
            <mxPoint x="50" as="sourcePoint" />
            <mxPoint x="59.99999999999999" as="targetPoint" />
            <Array as="points" />
          </mxGeometry>
        </mxCell>
        <mxCell id="Qy26fxQQe6GshsW-8NBu-77" value="" style="edgeStyle=none;orthogonalLoop=1;jettySize=auto;html=1;rounded=0;endArrow=none;startFill=0;strokeColor=#FFFFFF;" edge="1" parent="Qy26fxQQe6GshsW-8NBu-82">
          <mxGeometry width="80" relative="1" as="geometry">
            <mxPoint x="59.99999999999999" y="14" as="sourcePoint" />
            <mxPoint x="59.99999999999999" as="targetPoint" />
            <Array as="points" />
          </mxGeometry>
        </mxCell>
        <mxCell id="Qy26fxQQe6GshsW-8NBu-78" value="" style="edgeStyle=none;orthogonalLoop=1;jettySize=auto;html=1;rounded=0;endArrow=none;startFill=0;strokeColor=#FFFFFF;" edge="1" parent="Qy26fxQQe6GshsW-8NBu-82">
          <mxGeometry width="80" relative="1" as="geometry">
            <mxPoint x="59.99999999999999" y="14" as="sourcePoint" />
            <mxPoint x="70" y="14" as="targetPoint" />
            <Array as="points" />
          </mxGeometry>
        </mxCell>
        <mxCell id="Qy26fxQQe6GshsW-8NBu-81" value="" style="edgeStyle=none;orthogonalLoop=1;jettySize=auto;html=1;rounded=0;endArrow=none;startFill=0;strokeColor=#FFFFFF;" edge="1" parent="Qy26fxQQe6GshsW-8NBu-82">
          <mxGeometry width="80" relative="1" as="geometry">
            <mxPoint x="39.99999999999999" y="14" as="sourcePoint" />
            <mxPoint x="39.99999999999999" as="targetPoint" />
            <Array as="points" />
          </mxGeometry>
        </mxCell>
        <mxCell id="Qy26fxQQe6GshsW-8NBu-99" value="" style="group" vertex="1" connectable="0" parent="Qy26fxQQe6GshsW-8NBu-123">
          <mxGeometry x="899" y="91" width="70" height="24" as="geometry" />
        </mxCell>
        <mxCell id="Qy26fxQQe6GshsW-8NBu-84" value="" style="edgeStyle=none;orthogonalLoop=1;jettySize=auto;html=1;rounded=0;endArrow=none;startFill=0;strokeColor=#FFFFFF;" edge="1" parent="Qy26fxQQe6GshsW-8NBu-99">
          <mxGeometry width="80" relative="1" as="geometry">
            <mxPoint y="19.200000000000003" as="sourcePoint" />
            <mxPoint x="10" y="19.200000000000003" as="targetPoint" />
            <Array as="points" />
          </mxGeometry>
        </mxCell>
        <mxCell id="Qy26fxQQe6GshsW-8NBu-85" value="" style="edgeStyle=none;orthogonalLoop=1;jettySize=auto;html=1;rounded=0;endArrow=none;startFill=0;strokeColor=#FFFFFF;" edge="1" parent="Qy26fxQQe6GshsW-8NBu-99">
          <mxGeometry width="80" relative="1" as="geometry">
            <mxPoint x="10" y="19.200000000000003" as="sourcePoint" />
            <mxPoint x="10" as="targetPoint" />
            <Array as="points" />
          </mxGeometry>
        </mxCell>
        <mxCell id="Qy26fxQQe6GshsW-8NBu-86" value="" style="edgeStyle=none;orthogonalLoop=1;jettySize=auto;html=1;rounded=0;endArrow=none;startFill=0;strokeColor=#FFFFFF;" edge="1" parent="Qy26fxQQe6GshsW-8NBu-99">
          <mxGeometry width="80" relative="1" as="geometry">
            <mxPoint x="10" as="sourcePoint" />
            <mxPoint x="30.000000000000004" as="targetPoint" />
            <Array as="points" />
          </mxGeometry>
        </mxCell>
        <mxCell id="Qy26fxQQe6GshsW-8NBu-87" value="" style="edgeStyle=none;orthogonalLoop=1;jettySize=auto;html=1;rounded=0;endArrow=none;startFill=0;strokeColor=#FFFFFF;" edge="1" parent="Qy26fxQQe6GshsW-8NBu-99">
          <mxGeometry width="80" relative="1" as="geometry">
            <mxPoint x="30.000000000000004" y="19.200000000000003" as="sourcePoint" />
            <mxPoint x="30.000000000000004" as="targetPoint" />
            <Array as="points" />
          </mxGeometry>
        </mxCell>
        <mxCell id="Qy26fxQQe6GshsW-8NBu-88" value="" style="edgeStyle=none;orthogonalLoop=1;jettySize=auto;html=1;rounded=0;endArrow=none;startFill=0;strokeColor=#FFFFFF;" edge="1" parent="Qy26fxQQe6GshsW-8NBu-99">
          <mxGeometry width="80" relative="1" as="geometry">
            <mxPoint x="30.000000000000004" y="19.200000000000003" as="sourcePoint" />
            <mxPoint x="40" y="19.200000000000003" as="targetPoint" />
            <Array as="points" />
          </mxGeometry>
        </mxCell>
        <mxCell id="Qy26fxQQe6GshsW-8NBu-91" value="" style="edgeStyle=none;orthogonalLoop=1;jettySize=auto;html=1;rounded=0;endArrow=none;startFill=0;strokeColor=#FFFFFF;" edge="1" parent="Qy26fxQQe6GshsW-8NBu-99">
          <mxGeometry width="80" relative="1" as="geometry">
            <mxPoint x="40" y="19.200000000000003" as="sourcePoint" />
            <mxPoint x="60.00000000000001" y="19.200000000000003" as="targetPoint" />
            <Array as="points" />
          </mxGeometry>
        </mxCell>
        <mxCell id="Qy26fxQQe6GshsW-8NBu-95" value="" style="edgeStyle=none;orthogonalLoop=1;jettySize=auto;html=1;rounded=0;endArrow=none;startFill=0;strokeColor=#FFFFFF;" edge="1" parent="Qy26fxQQe6GshsW-8NBu-99">
          <mxGeometry width="80" relative="1" as="geometry">
            <mxPoint x="60.00000000000001" y="19.200000000000003" as="sourcePoint" />
            <mxPoint x="70" y="19.200000000000003" as="targetPoint" />
            <Array as="points" />
          </mxGeometry>
        </mxCell>
        <mxCell id="Qy26fxQQe6GshsW-8NBu-98" value="" style="edgeStyle=none;orthogonalLoop=1;jettySize=auto;html=1;rounded=0;endArrow=classicThin;startFill=0;strokeColor=#FFFFFF;startArrow=classicThin;endFill=0;endSize=0;startSize=0;" edge="1" parent="Qy26fxQQe6GshsW-8NBu-99">
          <mxGeometry width="80" relative="1" as="geometry">
            <mxPoint x="10" y="24" as="sourcePoint" />
            <mxPoint x="30.000000000000004" y="24" as="targetPoint" />
            <Array as="points" />
          </mxGeometry>
        </mxCell>
        <mxCell id="Qy26fxQQe6GshsW-8NBu-115" value="" style="group" vertex="1" connectable="0" parent="Qy26fxQQe6GshsW-8NBu-123">
          <mxGeometry x="4" y="202" width="185" height="68" as="geometry" />
        </mxCell>
        <mxCell id="Qy26fxQQe6GshsW-8NBu-101" value="" style="edgeStyle=none;orthogonalLoop=1;jettySize=auto;html=1;rounded=0;endArrow=none;startFill=0;dashed=1;strokeColor=#FFFFFF;" edge="1" parent="Qy26fxQQe6GshsW-8NBu-115">
          <mxGeometry width="80" relative="1" as="geometry">
            <mxPoint as="sourcePoint" />
            <mxPoint x="171" as="targetPoint" />
            <Array as="points" />
          </mxGeometry>
        </mxCell>
        <mxCell id="Qy26fxQQe6GshsW-8NBu-102" value="" style="edgeStyle=none;orthogonalLoop=1;jettySize=auto;html=1;rounded=0;endArrow=none;startFill=0;dashed=1;strokeColor=#FFFFFF;" edge="1" parent="Qy26fxQQe6GshsW-8NBu-115">
          <mxGeometry width="80" relative="1" as="geometry">
            <mxPoint y="65" as="sourcePoint" />
            <mxPoint x="166.92857142857147" y="65" as="targetPoint" />
            <Array as="points" />
          </mxGeometry>
        </mxCell>
        <mxCell id="Qy26fxQQe6GshsW-8NBu-103" value="" style="edgeStyle=none;orthogonalLoop=1;jettySize=auto;html=1;rounded=0;endArrow=none;startFill=0;strokeColor=#FFFFFF;" edge="1" parent="Qy26fxQQe6GshsW-8NBu-115">
          <mxGeometry width="80" relative="1" as="geometry">
            <mxPoint x="13.571428571428571" y="65" as="sourcePoint" />
            <mxPoint x="47.50000000000001" y="65" as="targetPoint" />
            <Array as="points" />
          </mxGeometry>
        </mxCell>
        <mxCell id="Qy26fxQQe6GshsW-8NBu-104" value="" style="edgeStyle=none;orthogonalLoop=1;jettySize=auto;html=1;rounded=0;endArrow=none;startFill=0;strokeColor=#FFFFFF;" edge="1" parent="Qy26fxQQe6GshsW-8NBu-115">
          <mxGeometry width="80" relative="1" as="geometry">
            <mxPoint x="57" as="sourcePoint" />
            <mxPoint x="116.71428571428572" as="targetPoint" />
            <Array as="points" />
          </mxGeometry>
        </mxCell>
        <mxCell id="Qy26fxQQe6GshsW-8NBu-105" value="" style="edgeStyle=none;orthogonalLoop=1;jettySize=auto;html=1;rounded=0;endArrow=none;startFill=0;strokeColor=#FFFFFF;" edge="1" parent="Qy26fxQQe6GshsW-8NBu-115">
          <mxGeometry width="80" relative="1" as="geometry">
            <mxPoint x="46.14285714285715" y="65" as="sourcePoint" />
            <mxPoint x="57" as="targetPoint" />
            <Array as="points" />
          </mxGeometry>
        </mxCell>
        <mxCell id="Qy26fxQQe6GshsW-8NBu-106" value="" style="edgeStyle=none;orthogonalLoop=1;jettySize=auto;html=1;rounded=0;endArrow=classic;startFill=0;endFill=0;endSize=1;strokeColor=#FFFFFF;" edge="1" parent="Qy26fxQQe6GshsW-8NBu-115">
          <mxGeometry width="80" relative="1" as="geometry">
            <mxPoint x="46.14285714285715" y="65" as="sourcePoint" />
            <mxPoint x="51.57142857142858" y="32.5" as="targetPoint" />
            <Array as="points" />
          </mxGeometry>
        </mxCell>
        <mxCell id="Qy26fxQQe6GshsW-8NBu-107" value="" style="edgeStyle=none;orthogonalLoop=1;jettySize=auto;html=1;rounded=0;endArrow=none;startFill=0;strokeColor=#FFFFFF;" edge="1" parent="Qy26fxQQe6GshsW-8NBu-115">
          <mxGeometry width="80" relative="1" as="geometry">
            <mxPoint x="123.50000000000001" y="65" as="sourcePoint" />
            <mxPoint x="157.42857142857144" y="65" as="targetPoint" />
            <Array as="points" />
          </mxGeometry>
        </mxCell>
        <mxCell id="Qy26fxQQe6GshsW-8NBu-112" value="" style="edgeStyle=none;orthogonalLoop=1;jettySize=auto;html=1;rounded=0;endArrow=none;startFill=0;strokeColor=#FFFFFF;" edge="1" parent="Qy26fxQQe6GshsW-8NBu-115">
          <mxGeometry width="80" relative="1" as="geometry">
            <mxPoint x="123.50000000000001" y="65" as="sourcePoint" />
            <mxPoint x="118.07142857142857" as="targetPoint" />
            <Array as="points" />
          </mxGeometry>
        </mxCell>
        <mxCell id="Qy26fxQQe6GshsW-8NBu-113" value="" style="edgeStyle=none;orthogonalLoop=1;jettySize=auto;html=1;rounded=0;endArrow=classic;startFill=0;endFill=0;endSize=1;strokeColor=#FFFFFF;" edge="1" parent="Qy26fxQQe6GshsW-8NBu-115">
          <mxGeometry width="80" relative="1" as="geometry">
            <mxPoint x="118.07142857142857" as="sourcePoint" />
            <mxPoint x="120.78571428571429" y="34.30555555555556" as="targetPoint" />
            <Array as="points" />
          </mxGeometry>
        </mxCell>
        <mxCell id="Qy26fxQQe6GshsW-8NBu-120" value="&lt;font style=&quot;color: rgb(255, 255, 255);&quot;&gt;-&lt;/font&gt;" style="text;html=1;align=center;verticalAlign=middle;whiteSpace=wrap;rounded=0;" vertex="1" parent="Qy26fxQQe6GshsW-8NBu-115">
          <mxGeometry x="130" y="43" width="60" height="30" as="geometry" />
        </mxCell>
        <mxCell id="Qy26fxQQe6GshsW-8NBu-121" value="&lt;font style=&quot;color: rgb(255, 255, 255);&quot;&gt;+&lt;/font&gt;" style="text;html=1;align=center;verticalAlign=middle;whiteSpace=wrap;rounded=0;" vertex="1" parent="Qy26fxQQe6GshsW-8NBu-123">
          <mxGeometry x="131" y="194" width="60" height="30" as="geometry" />
        </mxCell>
      </root>
    </mxGraphModel>
  </diagram>
</mxfile>
